<svg width="136" height="109" viewBox="0 0 136 109" fill="none" xmlns="http://www.w3.org/2000/svg">
<path d="M123.202 58.4319V6.83678C119.98 6.83678 117.368 4.22365 117.368 1H18.4114C18.4114 4.22365 15.7994 6.83679 12.5771 6.83679L12.5771 58.433C15.7994 58.433 18.4114 61.0462 18.4114 64.2698L117.367 64.2698C117.367 61.0462 119.979 58.433 123.201 58.433L123.202 58.4319Z" fill="white" stroke="#8B181B" stroke-width="2" stroke-miterlimit="10"/>
<g clip-path="url(#clip0_397_10612)">
<path d="M44.9763 18.7335C45.6305 18.7335 46.2013 18.9263 46.5841 19.2775L46.8416 19.5117V18.6508C46.3474 18.272 45.6793 18.0861 44.9763 18.093C43.5285 18.093 42.4775 19.1054 42.4775 20.4965C42.4775 21.8877 43.5285 22.9001 44.9763 22.9001C46.1526 22.9001 46.772 22.3836 46.8416 22.3423V21.4814L46.5841 21.7156C46.2013 22.0668 45.6236 22.2596 44.9763 22.2596C43.9322 22.2596 43.1736 21.5227 43.1736 20.4965C43.1736 19.4704 43.9322 18.7335 44.9763 18.7335Z" fill="#0F4672"/>
<path d="M60.3239 20.0143C59.6906 19.849 59.0433 19.6424 59.0433 19.3118C59.0433 18.9813 59.5305 18.7402 60.1708 18.7333C60.7416 18.7333 61.2775 18.9262 61.6673 19.2705L61.9248 19.4978V18.63L61.8552 18.5818C61.368 18.2581 60.7833 18.0859 60.1708 18.0859C59.1198 18.0928 58.3542 18.6094 58.3542 19.3049C58.3542 20.214 59.4261 20.4895 60.136 20.6686C61.0339 20.8959 61.549 21.1094 61.549 21.5019C61.549 21.8945 60.9295 22.2457 60.1639 22.2457C59.4748 22.2457 58.8414 21.9634 58.4238 21.4744L58.1523 21.1576V22.1562L58.208 22.2044C58.744 22.6521 59.433 22.9 60.1639 22.9C61.3262 22.9 62.238 22.2871 62.238 21.5088C62.238 20.5102 61.1313 20.2278 60.317 20.0143" fill="#0F4672"/>
<path d="M82.6588 18.1616H81.9697V22.8999H82.6588V18.1616Z" fill="#0F4672"/>
<path d="M78.1697 18.1616L75.9912 21.0129L73.8056 18.1616H73.1514V22.8999H73.8474V19.3462L75.9912 22.1423L78.1349 19.3462V22.8999H78.824V18.1616H78.1697Z" fill="#0F4672"/>
<path d="M52.5974 17.5005C51.971 18.1134 51.1636 18.5404 50.2588 18.6988V22.9H50.9479V21.2815H54.2401V22.9H54.9291V18.6988C54.0312 18.5404 53.2239 18.1134 52.5905 17.5005M50.9548 20.5928V19.2429C51.5534 19.0639 52.1102 18.7746 52.5974 18.4096C53.0847 18.7815 53.6415 19.0639 54.2401 19.2429V20.5928H50.9479H50.9548Z" fill="#0F4672"/>
<path d="M67.6668 17.5005C67.0403 18.1134 66.233 18.5404 65.3281 18.6988V22.9H66.0172V21.2815H69.3094V22.9H69.9985V18.6988C69.1006 18.5404 68.2932 18.1134 67.6598 17.5005M66.0242 20.5928V19.2429C66.6227 19.0639 67.1796 18.7746 67.6668 18.4096C68.154 18.7815 68.7108 19.0639 69.3094 19.2429V20.5928H66.0172H66.0242Z" fill="#0F4672"/>
<path d="M88.1433 17.5005C87.5169 18.1134 86.7095 18.5404 85.8047 18.6988V22.9H86.4938V21.2815H89.786V22.9H90.475V18.6988C89.5771 18.5404 88.7698 18.1134 88.1364 17.5005M86.5007 20.5928V19.2429C87.0993 19.0639 87.6561 18.7746 88.1433 18.4096C88.6306 18.7815 89.1874 19.0639 89.786 19.2429V20.5928H86.4938H86.5007Z" fill="#0F4672"/>
<path d="M33.0399 31.137C32.5875 30.8064 32.1281 30.4759 31.6757 30.1384C31.3903 29.9249 31.0353 29.8147 30.6665 29.8216C28.6549 29.8698 26.6434 29.918 24.6319 29.9731C24.2978 29.98 24.0264 30.2555 24.0264 30.5861V42.8864C24.0264 43.2169 24.2978 43.4855 24.6249 43.4442C26.6295 43.1963 28.6341 42.969 30.6456 42.7555C31.0145 42.7142 31.3694 42.5627 31.6548 42.3147C32.1072 41.9222 32.5666 41.4952 33.019 41.1095C33.3949 40.7927 33.6246 40.3588 33.6246 39.9043C33.6246 39.0778 33.6246 38.4304 33.6246 37.7004C33.6246 37.2527 33.4018 36.8395 33.026 36.5778C32.8241 36.4401 32.6223 36.2954 32.4204 36.1577C32.6223 35.9924 32.8241 35.8271 33.026 35.6618C33.4018 35.3588 33.6246 34.918 33.6246 34.4704C33.6246 33.7472 33.6246 33.0034 33.6246 32.2734C33.6246 31.8257 33.4088 31.4056 33.0329 31.1301L33.0399 31.137ZM31.2302 39.5737C31.2302 39.7803 31.1258 39.9869 30.9588 40.1315C30.7152 40.3381 30.4716 40.5516 30.228 40.7583C30.1027 40.8685 29.9356 40.9373 29.7755 40.958C28.7802 41.0544 27.7919 41.1508 26.7966 41.2541C26.5947 41.2748 26.4346 41.137 26.4346 40.9373C26.4346 39.8423 26.4346 38.7472 26.4346 37.6522C26.4346 37.4594 26.5947 37.2872 26.7966 37.2734C27.7919 37.1976 28.7802 37.1219 29.7755 37.053C29.9426 37.0392 30.1027 37.0875 30.228 37.177C30.4716 37.3492 30.7152 37.5145 30.9588 37.6866C31.1258 37.8037 31.2302 38.1756 31.2302 38.3822C31.2302 38.7748 31.2302 39.1742 31.2302 39.5668V39.5737ZM31.2302 34.0709C31.2302 34.2775 31.1328 35.0489 30.9588 35.1935C30.7152 35.3932 30.4716 35.5998 30.228 35.7996C30.0957 35.9098 29.9356 35.9717 29.7755 35.9786C28.7802 36.0406 27.7849 36.1095 26.7966 36.1784C26.5947 36.1921 26.4346 36.0475 26.4346 35.8478C26.4346 34.6219 26.4346 33.396 26.4346 32.1701C26.4346 31.9772 26.5947 31.812 26.7966 31.8051C27.7919 31.7637 28.7872 31.7293 29.7825 31.6949C29.9495 31.6949 30.1096 31.7362 30.2349 31.8326C30.4785 32.0117 30.7221 32.1907 30.9657 32.3698C31.1328 32.4938 31.2302 32.6866 31.2302 32.8863C31.2302 33.2789 31.2302 33.6784 31.2302 34.0709ZM33.026 41.1095C33.4018 40.7927 33.6315 40.3588 33.6315 39.9043Z" fill="#8B181B"/>
<path d="M58.8346 39.2292C56.7883 39.2774 54.7698 39.3393 52.7235 39.4151C52.4242 39.4289 52.1736 39.2292 52.1736 38.9743C52.1736 35.9647 52.1736 32.955 52.1736 29.9523C52.1736 29.6975 51.9579 29.4908 51.6586 29.4977C51.2201 29.4977 50.7607 29.5115 50.3222 29.5184C50.0229 29.5184 49.7793 29.7319 49.7793 29.9867C49.7793 33.5749 49.7793 37.1493 49.7793 40.7443C49.7793 40.9991 50.0229 41.1989 50.3222 41.1851C53.1689 41.0473 55.9878 40.9371 58.8346 40.8614C59.1339 40.8545 59.3775 40.6479 59.3775 40.3931V39.6699C59.3775 39.422 59.1339 39.2223 58.8346 39.2292Z" fill="#8B181B"/>
<path d="M85.2001 29.5045C84.8312 29.5045 84.2953 29.4977 83.9264 29.4908C83.7246 29.4908 83.5993 29.6285 83.5993 29.7938C83.6132 32.3489 83.5854 34.904 83.5993 37.4591C81.6365 34.78 79.8268 32.2249 77.864 29.6354C77.8014 29.5459 77.6831 29.4908 77.5578 29.4908C77.1471 29.4908 76.7365 29.4908 76.3258 29.4839C76.124 29.4839 75.9639 29.6147 75.9639 29.7869C75.9639 33.3957 75.9639 36.9357 75.9639 40.5445C75.9639 40.7098 76.1379 40.8544 76.3397 40.8613C76.7504 40.8751 77.168 40.882 77.5786 40.8958C77.7805 40.8958 77.9336 40.7718 77.9267 40.5996C77.9267 38.2442 77.9267 35.8889 77.9267 33.5335C79.8338 35.9715 81.7409 38.4371 83.655 40.9715C83.7176 41.0679 83.8359 41.123 83.9612 41.1299C84.3719 41.1506 84.7895 41.1712 85.2001 41.1919C85.402 41.1988 85.5621 41.0679 85.5621 40.9026C85.5551 37.2112 85.569 33.5128 85.5621 29.8214C85.5621 29.6492 85.402 29.5114 85.2001 29.5045Z" fill="#8B181B"/>
<path d="M96.0367 38.5334C96.0367 38.7331 96.0367 38.9328 96.0367 39.1326C96.0367 39.3116 95.9463 39.4769 95.7931 39.5802C95.5356 39.7524 95.2781 39.9246 95.0206 40.0968C94.9022 40.1725 94.7561 40.2138 94.6099 40.2001C93.9626 40.1587 93.3223 40.1105 92.6749 40.0692C92.5218 40.0623 92.3757 40.0003 92.2573 39.9108C91.9998 39.7042 91.7562 39.5045 91.4917 39.3048C91.3386 39.1877 91.2342 39.0086 91.2342 38.8364C91.2342 36.7083 91.2342 34.5802 91.2342 32.459C91.2342 32.2799 91.3247 32.1146 91.4778 32.0113C91.7353 31.8323 91.9789 31.6532 92.2364 31.4673C92.3548 31.3846 92.5009 31.3433 92.6471 31.3433C93.2944 31.3571 93.9348 31.3777 94.5821 31.3915C94.7352 31.3915 94.8813 31.4466 94.9997 31.5361C95.2572 31.7359 95.5356 31.9287 95.7931 32.1284C95.9463 32.2455 96.0367 32.4246 96.0367 32.6036C96.0367 32.8034 96.0367 33.0031 96.0367 33.2028C96.8372 33.2304 97.6376 33.2648 98.4311 33.2923C98.4311 32.7896 98.4311 32.2868 98.4311 31.7841C98.4311 31.5981 98.3267 31.4259 98.1735 31.302C97.5193 30.7923 96.865 30.3516 96.2108 29.8557C96.0785 29.7593 95.9184 29.7042 95.7583 29.6973C94.3315 29.6697 92.8977 29.6491 91.4708 29.6284C91.3038 29.6284 91.1437 29.6766 91.0184 29.7662C90.3781 30.2207 89.7308 30.6133 89.0904 31.0678C88.9234 31.1849 88.8398 31.364 88.8398 31.5568C88.8398 34.2152 88.8398 36.8736 88.8398 39.532C88.8398 39.7249 88.9373 39.9108 89.1113 40.0417C89.7586 40.5375 90.3989 41.0403 91.0462 41.5499C91.1785 41.6532 91.3386 41.7152 91.4987 41.7221C92.9255 41.8185 94.3593 41.9287 95.7862 42.0458C95.9532 42.0596 96.1133 42.0183 96.2386 41.9356C96.8929 41.5086 97.5402 41.0747 98.1944 40.634C98.3476 40.5307 98.438 40.3654 98.438 40.1794C98.438 39.6767 98.438 39.1739 98.438 38.6711C97.6376 38.616 96.8372 38.5609 96.0367 38.5127V38.5334Z" fill="#8B181B"/>
<path d="M46.1108 30.9646C45.5957 30.6065 45.0806 30.3241 44.5656 29.966C44.2733 29.7594 43.8974 29.6423 43.5146 29.6492C42.3105 29.6699 41.0994 29.6836 39.8953 29.7043C39.5194 29.7043 39.1575 29.8421 38.8651 30.0624C38.3501 30.455 37.8281 30.7718 37.313 31.1644C37.0694 31.3503 36.9023 31.6396 36.9023 31.9288C36.9023 35.214 36.9023 38.4853 36.9023 41.7636C36.9023 41.9426 37.0624 42.0804 37.2643 42.0597C37.8211 42.0115 38.3779 41.9633 38.9347 41.9151C39.1296 41.9013 39.2967 41.736 39.2967 41.5638C39.2967 40.2484 39.2967 38.9261 39.3036 37.6107C40.8975 37.5142 42.5054 37.4316 44.1062 37.3558C44.1062 38.6437 44.1062 39.9316 44.1062 41.2195C44.1062 41.3917 44.2663 41.5294 44.4681 41.5156C45.025 41.4812 45.5887 41.4399 46.1456 41.4123C46.3474 41.3986 46.5075 41.247 46.5075 41.0749C46.5075 37.9412 46.5075 34.8145 46.5075 31.674C46.5075 31.3985 46.3613 31.1368 46.1177 30.9646H46.1108ZM39.3106 35.5377C39.3106 34.5735 39.3036 33.6024 39.3106 32.6382C39.3106 32.404 39.4428 32.1768 39.6447 32.0253C39.8326 31.8806 40.0275 31.736 40.2154 31.5914C40.4173 31.4399 40.6609 31.3572 40.9184 31.3503C41.4544 31.3365 41.9903 31.3228 42.5262 31.309C42.7838 31.309 43.0274 31.371 43.2223 31.5156C43.4102 31.6465 43.6051 31.7773 43.793 31.9151C43.9948 32.0528 44.1132 32.2663 44.1132 32.4936C44.1132 33.4371 44.1132 34.3049 44.1132 35.3242C42.5193 35.3861 40.9115 35.455 39.3176 35.5377H39.3106Z" fill="#8B181B"/>
<path d="M110.918 31.5984C110.403 31.1645 109.867 30.7307 109.352 30.3105C109.06 30.0695 108.691 29.9249 108.308 29.9111C107.097 29.8835 105.886 29.8491 104.675 29.8216C104.292 29.8147 103.93 29.9386 103.638 30.1521C103.123 30.5378 102.601 30.9166 102.086 31.2885C101.842 31.4676 101.71 31.7431 101.71 32.0392C101.71 35.3863 101.71 38.7265 101.71 42.0737C101.71 42.2596 101.877 42.4249 102.072 42.4456C102.629 42.5007 103.186 42.5558 103.749 42.6109C103.951 42.6315 104.111 42.4938 104.111 42.3078C104.111 40.9235 104.111 39.5461 104.111 38.1618C105.712 38.2858 107.313 38.4097 108.907 38.5475C108.907 39.9731 108.907 41.3987 108.907 42.8312C108.907 43.0241 109.067 43.2031 109.262 43.2238C109.819 43.2927 110.389 43.3547 110.946 43.4304C111.148 43.458 111.308 43.3133 111.308 43.1205C111.308 39.553 111.308 35.9855 111.308 32.418C111.308 32.1012 111.169 31.7982 110.918 31.5915V31.5984ZM104.111 35.9993C104.111 34.9869 104.111 33.9745 104.111 32.9621C104.111 32.7141 104.216 32.4869 104.418 32.3422C104.605 32.2045 104.8 32.0599 104.988 31.9221C105.19 31.7775 105.434 31.7017 105.691 31.7086C106.227 31.7293 106.763 31.7499 107.306 31.7706C107.564 31.7775 107.807 31.8739 108.009 32.0392C108.204 32.1976 108.392 32.356 108.587 32.5144C108.789 32.6797 108.914 32.9345 108.914 33.1825C108.914 34.2293 108.914 35.2692 108.914 36.3092C107.313 36.199 105.719 36.0957 104.118 35.9924L104.111 35.9993Z" fill="#8B181B"/>
<path d="M71.9335 27.7898C71.509 27.473 71.3002 27.0666 71.3002 26.5914C71.3002 26.433 71.3002 26.2746 71.3002 26.1162H69.9499C69.9499 26.2264 69.9499 26.4261 69.9499 26.5914H65.377C65.377 26.4399 65.377 26.2402 65.377 26.1162H64.0267C64.0267 26.2746 64.0267 26.433 64.0267 26.5914C64.0267 27.0666 63.8179 27.473 63.3933 27.7898C62.9687 28.1135 62.4815 28.2856 61.9316 28.3201V28.6162C62.3493 28.7815 62.5789 29.1947 62.6416 29.8421C62.6416 33.389 62.6416 36.9427 62.6416 40.4895C62.6416 40.6548 62.8086 40.7926 63.0244 40.7926C63.6091 40.7857 64.0824 40.7788 64.667 40.7719C64.8758 40.7719 65.0498 40.6342 65.0498 40.462V36.5983C65.1403 36.2815 65.4118 35.9923 65.6415 35.7443C66.1148 35.2485 66.8456 34.9248 67.6669 34.9248C68.4882 34.9248 69.2121 35.2485 69.6923 35.7443C69.922 35.9923 70.1935 36.2815 70.2839 36.5983V40.462C70.2839 40.6273 70.451 40.7719 70.6668 40.7719C71.2514 40.7719 71.7247 40.7788 72.3094 40.7926C72.5182 40.7926 72.6922 40.6617 72.6922 40.4895C72.6922 36.9358 72.6922 33.389 72.6922 29.8421C72.7548 29.1878 72.9776 28.7815 73.3952 28.6093V28.3132C72.8453 28.2788 72.3581 28.1066 71.9335 27.7829V27.7898ZM69.6923 32.9275C69.0798 32.6934 68.3977 32.5556 67.6669 32.5556C66.943 32.5556 66.2609 32.6865 65.6415 32.9275C65.4744 32.9964 65.203 33.1341 65.0429 33.2168C65.0429 32.1148 65.0429 31.0129 65.0429 29.911C65.0916 29.608 65.4326 29.2912 65.7528 29.0914C66.0521 28.8642 67.2075 28.7815 67.653 28.7815H67.6669C68.1123 28.7815 69.2678 28.8642 69.567 29.0914C69.8872 29.2912 70.2352 29.6011 70.2839 29.9041V33.2168C70.1239 33.1341 69.8524 32.9964 69.6854 32.9275H69.6923Z" fill="#8B181B"/>
<path d="M57.3035 45.8063H55.3477V44.2705H54.582V47.7209H55.3477V46.192H57.3035V47.7209H58.0691V44.2705H57.3035V45.8063Z" fill="#0F4672"/>
<path d="M62.8304 45.2348C62.7817 45.1315 62.7191 45.0419 62.6425 44.9524C62.5729 44.8698 62.4894 44.7871 62.4058 44.7045C62.2388 44.5461 62.03 44.429 61.8003 44.3463C61.3409 44.1879 60.7911 44.1879 60.3386 44.3463C60.109 44.429 59.9071 44.5461 59.7401 44.6976C59.6496 44.7733 59.573 44.8629 59.4965 44.9455C59.4268 45.035 59.3642 45.1315 59.3085 45.2279C59.2598 45.3312 59.218 45.4345 59.1902 45.5516C59.1624 45.6687 59.1484 45.7995 59.1484 45.9373V46.0337C59.1484 46.1714 59.1624 46.3023 59.1902 46.4194C59.218 46.5364 59.2598 46.6466 59.3085 46.743C59.3572 46.8463 59.4199 46.9359 59.4965 47.0254C59.5661 47.1081 59.6496 47.1907 59.7331 47.2733C59.9001 47.4317 60.102 47.5488 60.3317 47.6315C60.5544 47.7072 60.805 47.7486 61.0625 47.7486C61.32 47.7486 61.5636 47.7072 61.7933 47.6246C62.023 47.5419 62.2249 47.4249 62.3919 47.2733C62.5798 47.1149 62.719 46.929 62.8235 46.743C62.9279 46.5502 62.9766 46.3092 62.9766 46.0268V45.9304C62.9766 45.7926 62.9627 45.6618 62.9348 45.5447C62.907 45.4276 62.8652 45.3174 62.8165 45.221L62.8304 45.2348ZM62.2109 46.0474C62.2109 46.137 62.204 46.2403 62.1901 46.3436C62.1761 46.4469 62.1553 46.5502 62.1205 46.6535C62.0926 46.7499 62.0578 46.8395 62.0161 46.9221C61.9743 46.9979 61.9325 47.0598 61.8838 47.1012C61.7864 47.1907 61.6681 47.2596 61.5358 47.3078C61.3966 47.356 61.2435 47.3767 61.0695 47.3767C60.7284 47.3767 60.4639 47.2871 60.2621 47.1012C60.2134 47.053 60.1716 46.9979 60.1298 46.9221C60.0881 46.8395 60.0533 46.7499 60.0254 46.6535C59.9976 46.5502 59.9767 46.4469 59.9558 46.3436C59.9419 46.2403 59.9349 46.137 59.9349 46.0474V45.951C59.9349 45.8615 59.9419 45.7582 59.9558 45.6549C59.9697 45.5516 59.9906 45.4483 60.0254 45.345C60.0533 45.2485 60.0881 45.1521 60.1298 45.0764C60.1716 45.0006 60.2134 44.9386 60.2621 44.8973C60.4709 44.7114 60.7354 44.6218 61.0695 44.6218C61.4036 44.6218 61.675 44.7114 61.8838 44.8973C61.9325 44.9386 61.9743 45.0006 62.0161 45.0695C62.0578 45.1521 62.0926 45.2417 62.1205 45.3381C62.1483 45.4414 62.1692 45.5447 62.1901 45.648C62.211 45.7513 62.2109 45.8546 62.2109 45.9441V46.0406V46.0474Z" fill="#0F4672"/>
<path d="M64.8418 44.2705H64.0762V47.7209H64.8418V44.2705Z" fill="#0F4672"/>
<path d="M69.9298 44.2705H69.9159H69.9019H69.7975L68.1201 47.7209H68.5586L69.0528 46.7016H70.772L71.2662 47.7209H72.1083L70.4309 44.2705H69.9228H69.9298ZM69.2338 46.316L69.9089 44.9248L70.584 46.316H69.2338Z" fill="#0F4672"/>
<path d="M76.0062 44.2705V46.5226L73.925 44.2705H73.3195H73.2917H73.2012V47.7209H73.5909V45.0143L76.0479 47.6727L76.0966 47.7209H76.3959V44.2705H76.0062Z" fill="#0F4672"/>
</g>
<path d="M67.8896 64.27V100.903" stroke="#8B181B" stroke-width="1.5"/>
<circle cx="67.8896" cy="104.903" r="4" fill="#8B181B"/>
<defs>
<clipPath id="clip0_397_10612">
<rect width="87.2747" height="30.2687" fill="white" transform="translate(24.0332 17.5005)"/>
</clipPath>
</defs>
</svg>
